<svg width="14" height="14" viewBox="0 0 14 14" fill="none" xmlns="http://www.w3.org/2000/svg">
<g clip-path="url(#clip0_43_2)">
<path d="M6.41669 8.75H7.58335V9.91667H6.41669V8.75ZM6.41669 4.08333H7.58335V7.58333H6.41669V4.08333ZM6.99419 1.16666C3.77419 1.16666 1.16669 3.78 1.16669 7C1.16669 10.22 3.77419 12.8333 6.99419 12.8333C10.22 12.8333 12.8334 10.22 12.8334 7C12.8334 3.78 10.22 1.16666 6.99419 1.16666ZM7.00002 11.6667C4.42169 11.6667 2.33335 9.57833 2.33335 7C2.33335 4.42166 4.42169 2.33333 7.00002 2.33333C9.57835 2.33333 11.6667 4.42166 11.6667 7C11.6667 9.57833 9.57835 11.6667 7.00002 11.6667Z" fill="#FF0000"/>
</g>
<defs>
<clipPath id="clip0_43_2">
<rect width="14" height="14" fill="white"/>
</clipPath>
</defs>
</svg>
